<svg width="317" height="208" viewBox="0 0 317 208" fill="none" xmlns="http://www.w3.org/2000/svg">
<path d="M80 10C91.0457 10 100 18.9543 100 30V35C100 46.0457 91.0457 55 80 55H30C18.9543 55 10 46.0457 10 35V30C10 18.9543 18.9543 10 30 10H80ZM183.5 10C194.546 10 203.5 18.9543 203.5 30V35C203.5 46.0457 194.546 55 183.5 55H133.5C122.454 55 113.5 46.0457 113.5 35V30C113.5 18.9543 122.454 10 133.5 10H183.5ZM287 10C298.046 10 307 18.9543 307 30V35C307 46.0457 298.046 55 287 55H237C225.954 55 217 46.0457 217 35V30C217 18.9543 225.954 10 237 10H287Z" fill="white"/>
<g filter="url(#filter0_d_10566_682)">
<mask id="path-2-inside-1_10566_682" fill="white">
<path d="M183.623 88.9998C193.907 88.9999 202.244 97.0588 202.244 107C202.243 115.415 196.269 122.481 188.196 124.452C189.151 125.327 189.917 126.439 190.388 127.745L194.49 139.104L207.33 141.855C212.586 142.981 215.948 148.157 214.838 153.417C213.729 158.676 208.568 162.027 203.312 160.901L183.621 156.683C180.355 155.984 177.821 153.72 176.636 150.845L172.695 158.314L182.666 164.352C183.893 165.096 184.909 166.059 185.694 167.16C186.804 167.678 187.842 168.405 188.743 169.345L202.961 184.184C206.872 188.265 206.758 194.769 202.708 198.711C198.657 202.652 192.204 202.54 188.293 198.46L174.074 183.621C173.667 183.197 173.307 182.745 172.988 182.274C172.732 182.147 172.477 182.011 172.228 181.86L155.022 171.441C154.636 171.207 154.272 170.948 153.928 170.674L142.207 176.182C140.781 176.852 139.288 177.194 137.811 177.243C134.783 178.328 131.309 178.088 128.333 176.286L108.77 164.44C103.5 161.249 101.785 154.371 104.94 149.079C108.095 143.787 114.926 142.084 120.197 145.275L135.422 154.495L144.751 150.111C145.014 148.682 145.495 147.269 146.208 145.918L155.498 128.307L153.604 127.724L138.211 136.324C133.398 139.013 127.341 137.276 124.683 132.445C122.026 127.614 123.773 121.516 128.587 118.827L145.373 109.451C146.448 108.85 147.585 108.472 148.733 108.298C150.837 107.331 153.292 107.104 155.684 107.842L165.426 110.844C165.148 109.605 165.001 108.319 165.001 107C165.001 97.0587 173.338 88.9998 183.623 88.9998Z"/>
</mask>
<path d="M183.623 88.9998L183.623 86.9998H183.623V88.9998ZM202.244 107L204.244 107V107L202.244 107ZM188.196 124.452L187.722 122.509L184.084 123.397L186.845 125.927L188.196 124.452ZM190.388 127.745L192.269 127.066L192.269 127.065L190.388 127.745ZM194.49 139.104L192.609 139.783L192.986 140.827L194.071 141.06L194.49 139.104ZM207.33 141.855L206.911 143.811L206.911 143.811L207.33 141.855ZM214.838 153.417L216.795 153.829L216.795 153.829L214.838 153.417ZM203.312 160.901L203.731 158.945L203.731 158.945L203.312 160.901ZM183.621 156.683L183.202 158.639L183.202 158.639L183.621 156.683ZM176.636 150.845L178.485 150.083L176.859 146.138L174.867 149.912L176.636 150.845ZM172.695 158.314L170.926 157.381L170.046 159.048L171.659 160.025L172.695 158.314ZM182.666 164.352L181.63 166.063L181.63 166.063L182.666 164.352ZM185.694 167.16L184.066 168.321L184.371 168.75L184.849 168.973L185.694 167.16ZM188.743 169.345L190.187 167.962L190.187 167.962L188.743 169.345ZM202.961 184.184L201.517 185.568L201.517 185.568L202.961 184.184ZM202.708 198.711L204.102 200.144L204.102 200.144L202.708 198.711ZM188.293 198.46L186.849 199.843L186.849 199.844L188.293 198.46ZM174.074 183.621L172.63 185.005L172.63 185.005L174.074 183.621ZM172.988 182.274L174.643 181.151L174.347 180.716L173.877 180.483L172.988 182.274ZM172.228 181.86L171.192 183.571L171.192 183.571L172.228 181.86ZM155.022 171.441L156.058 169.73H156.058L155.022 171.441ZM153.928 170.674L155.177 169.111L154.204 168.334L153.078 168.864L153.928 170.674ZM142.207 176.182L143.057 177.992L143.057 177.992L142.207 176.182ZM137.811 177.243L137.745 175.244L137.432 175.254L137.137 175.36L137.811 177.243ZM128.333 176.286L127.297 177.997L127.297 177.997L128.333 176.286ZM108.77 164.44L107.734 166.151L107.734 166.151L108.77 164.44ZM104.94 149.079L103.222 148.055L103.222 148.055L104.94 149.079ZM120.197 145.275L121.233 143.564L121.233 143.564L120.197 145.275ZM135.422 154.495L134.386 156.206L135.303 156.761L136.273 156.305L135.422 154.495ZM144.751 150.111L145.602 151.921L146.533 151.484L146.719 150.472L144.751 150.111ZM146.208 145.918L147.976 146.851L147.976 146.851L146.208 145.918ZM155.498 128.307L157.267 129.241L158.393 127.106L156.086 126.396L155.498 128.307ZM153.604 127.724L154.193 125.813L153.375 125.561L152.629 125.978L153.604 127.724ZM138.211 136.324L139.187 138.07L139.187 138.07L138.211 136.324ZM124.683 132.445L122.931 133.409L122.931 133.409L124.683 132.445ZM128.587 118.827L127.612 117.081L127.612 117.081L128.587 118.827ZM145.373 109.451L146.348 111.197L146.348 111.197L145.373 109.451ZM148.733 108.298L149.033 110.275L149.312 110.233L149.568 110.115L148.733 108.298ZM155.684 107.842L156.273 105.93L156.273 105.93L155.684 107.842ZM165.426 110.844L164.837 112.755L168.135 113.771L167.377 110.404L165.426 110.844ZM165.001 107L163.001 107V107L165.001 107ZM183.623 88.9998L183.623 90.9998C192.867 90.9999 200.244 98.2268 200.244 107L202.244 107L204.244 107C204.244 95.8909 194.947 86.9999 183.623 86.9998L183.623 88.9998ZM202.244 107L200.244 107C200.243 114.429 194.963 120.741 187.722 122.509L188.196 124.452L188.67 126.395C197.575 124.221 204.243 116.401 204.244 107L202.244 107ZM188.196 124.452L186.845 125.927C187.569 126.59 188.149 127.432 188.507 128.424L190.388 127.745L192.269 127.065C191.685 125.447 190.733 124.064 189.547 122.977L188.196 124.452ZM190.388 127.745L188.507 128.424L192.609 139.783L194.49 139.104L196.371 138.425L192.269 127.066L190.388 127.745ZM194.49 139.104L194.071 141.06L206.911 143.811L207.33 141.855L207.749 139.9L194.909 137.149L194.49 139.104ZM207.33 141.855L206.911 143.811C211.089 144.706 213.763 148.823 212.881 153.004L214.838 153.417L216.795 153.829C218.132 147.491 214.082 141.256 207.749 139.9L207.33 141.855ZM214.838 153.417L212.881 153.004C212.001 157.18 207.905 159.84 203.731 158.945L203.312 160.901L202.893 162.857C209.231 164.214 215.457 160.172 216.795 153.829L214.838 153.417ZM203.312 160.901L203.731 158.945L184.04 154.728L183.621 156.683L183.202 158.639L202.893 162.857L203.312 160.901ZM183.621 156.683L184.04 154.728C181.447 154.172 179.431 152.377 178.485 150.083L176.636 150.845L174.787 151.608C176.212 155.064 179.264 157.795 183.202 158.639L183.621 156.683ZM176.636 150.845L174.867 149.912L170.926 157.381L172.695 158.314L174.464 159.248L178.405 151.779L176.636 150.845ZM172.695 158.314L171.659 160.025L181.63 166.063L182.666 164.352L183.702 162.642L173.731 156.603L172.695 158.314ZM182.666 164.352L181.63 166.063C182.618 166.662 183.434 167.436 184.066 168.321L185.694 167.16L187.322 165.999C186.383 164.682 185.168 163.529 183.701 162.642L182.666 164.352ZM185.694 167.16L184.849 168.973C185.74 169.388 186.573 169.972 187.299 170.729L188.743 169.345L190.187 167.962C189.11 166.838 187.869 165.967 186.539 165.347L185.694 167.16ZM188.743 169.345L187.299 170.729L201.517 185.568L202.961 184.184L204.406 182.801L190.187 167.962L188.743 169.345ZM202.961 184.184L201.517 185.568C204.668 188.856 204.576 194.102 201.313 197.277L202.708 198.711L204.102 200.144C208.94 195.436 209.076 187.675 204.405 182.801L202.961 184.184ZM202.708 198.711L201.313 197.277C198.058 200.445 192.879 200.355 189.737 197.076L188.293 198.46L186.849 199.844C191.528 204.726 199.256 204.86 204.102 200.144L202.708 198.711ZM188.293 198.46L189.737 197.076L175.518 182.237L174.074 183.621L172.63 185.005L186.849 199.843L188.293 198.46ZM174.074 183.621L175.518 182.237C175.194 181.9 174.904 181.536 174.643 181.151L172.988 182.274L171.333 183.397C171.711 183.954 172.141 184.494 172.63 185.005L174.074 183.621ZM172.988 182.274L173.877 180.483C173.657 180.373 173.454 180.264 173.264 180.149L172.228 181.86L171.192 183.571C171.501 183.758 171.806 183.921 172.099 184.066L172.988 182.274ZM172.228 181.86L173.264 180.149L156.058 169.73L155.022 171.441L153.986 173.152L171.192 183.571L172.228 181.86ZM155.022 171.441L156.058 169.73C155.755 169.547 155.462 169.339 155.177 169.111L153.928 170.674L152.68 172.236C153.082 172.557 153.516 172.867 153.986 173.152L155.022 171.441ZM153.928 170.674L153.078 168.864L141.356 174.372L142.207 176.182L143.057 177.992L154.779 172.484L153.928 170.674ZM142.207 176.182L141.356 174.372C140.182 174.924 138.957 175.204 137.745 175.244L137.811 177.243L137.877 179.242C139.619 179.184 141.38 178.781 143.057 177.992L142.207 176.182ZM137.811 177.243L137.137 175.36C134.652 176.25 131.809 176.053 129.368 174.575L128.333 176.286L127.297 177.997C130.809 180.123 134.913 180.405 138.485 179.126L137.811 177.243ZM128.333 176.286L129.368 174.575L109.806 162.729L108.77 164.44L107.734 166.151L127.297 177.997L128.333 176.286ZM108.77 164.44L109.806 162.729C105.476 160.107 104.065 154.451 106.658 150.103L104.94 149.079L103.222 148.055C99.5039 154.291 101.523 162.39 107.734 166.151L108.77 164.44ZM104.94 149.079L106.658 150.103C109.245 145.764 114.84 144.369 119.161 146.986L120.197 145.275L121.233 143.564C115.013 139.798 106.946 141.809 103.222 148.055L104.94 149.079ZM120.197 145.275L119.161 146.986L134.386 156.206L135.422 154.495L136.458 152.784L121.233 143.564L120.197 145.275ZM135.422 154.495L136.273 156.305L145.602 151.921L144.751 150.111L143.901 148.301L134.572 152.685L135.422 154.495ZM144.751 150.111L146.719 150.472C146.945 149.24 147.36 148.02 147.976 146.851L146.208 145.918L144.439 144.984C143.63 146.517 143.083 148.123 142.784 149.75L144.751 150.111ZM146.208 145.918L147.976 146.851L157.267 129.241L155.498 128.307L153.729 127.374L144.439 144.985L146.208 145.918ZM155.498 128.307L156.086 126.396L154.193 125.813L153.604 127.724L153.016 129.636L154.909 130.219L155.498 128.307ZM153.604 127.724L152.629 125.978L137.236 134.578L138.211 136.324L139.187 138.07L154.579 129.47L153.604 127.724ZM138.211 136.324L137.236 134.578C133.391 136.726 128.558 135.34 126.435 131.481L124.683 132.445L122.931 133.409C126.123 139.213 133.404 141.3 139.187 138.07L138.211 136.324ZM124.683 132.445L126.436 131.481C124.308 127.613 125.709 122.726 129.563 120.573L128.587 118.827L127.612 117.081C121.838 120.306 119.743 127.614 122.931 133.409L124.683 132.445ZM128.587 118.827L129.563 120.573L146.348 111.197L145.373 109.451L144.397 107.705L127.612 117.081L128.587 118.827ZM145.373 109.451L146.348 111.197C147.21 110.716 148.118 110.414 149.033 110.275L148.733 108.298L148.433 106.32C147.053 106.529 145.686 106.985 144.397 107.705L145.373 109.451ZM148.733 108.298L149.568 110.115C151.242 109.346 153.19 109.166 155.095 109.753L155.684 107.842L156.273 105.93C153.393 105.043 150.432 105.316 147.898 106.48L148.733 108.298ZM155.684 107.842L155.095 109.753L164.837 112.755L165.426 110.844L166.015 108.932L156.273 105.93L155.684 107.842ZM165.426 110.844L167.377 110.404C167.131 109.309 167.001 108.17 167.001 107L165.001 107L163.001 107C163.001 108.468 163.164 109.901 163.475 111.283L165.426 110.844ZM165.001 107L167.001 107C167.001 98.2268 174.378 90.9998 183.623 90.9998V88.9998V86.9998C172.298 86.9998 163.001 95.8907 163.001 107L165.001 107Z" fill="white" mask="url(#path-2-inside-1_10566_682)"/>
<path d="M152.137 122.54C151.201 122.813 148.936 124.146 148.009 124.657C144.509 126.59 141.037 128.574 137.594 130.608C136.309 131.364 134.887 132.38 133.494 132.878C130.996 133.771 128.439 133.118 127.02 130.757C126.3 129.557 126.084 128.116 126.421 126.755C126.931 124.718 128.558 123.905 130.185 122.906C131.446 122.133 132.717 121.376 133.985 120.615L146.626 113.03C149.126 111.536 150.277 110.944 153.323 111.813C157.109 112.894 160.907 114.083 164.674 115.238C166.727 115.867 169.204 116.419 171.161 117.224C172.019 117.577 174.039 118.939 174.93 119.522C177.148 120.975 179.85 122.225 181.735 124.059C182.627 124.926 183.131 125.941 183.582 127.083C184.946 130.532 186.184 134.04 187.457 137.526C187.983 138.859 188.514 140.509 189.183 141.756C189.593 142.519 192.615 142.68 193.463 142.87C198.007 143.893 202.59 144.582 207.131 145.616C207.919 145.796 209.414 146.467 209.858 147.251C210.49 149.002 210.359 152.809 209.885 154.545C208.314 155.795 207.473 156.344 205.4 156.213C203.551 156.096 201.987 155.581 200.21 155.266C196.609 154.63 193.059 153.947 189.493 153.121C187.631 152.69 185.422 152.428 183.643 151.778C182.689 151.428 181.622 150.508 181.186 149.57C180.213 147.473 178.277 140.499 177.03 139.08L176.963 139.004C175.756 141.466 174.776 143.045 173.442 145.425L169.4 152.729C168.518 154.291 167.32 156.248 166.556 157.829C168.548 158.875 172.408 161.647 174.374 163.042C173.972 163.356 172.306 163.368 171.718 163.481C169.448 163.915 167.708 165.665 167.2 167.916C166.708 169.771 167.808 172.104 167.682 173.232C166.294 172.438 164.94 171.435 163.562 170.606C161.189 169.178 158.834 167.707 156.525 166.175C154.452 164.801 152.248 163.555 150.318 161.986C144.593 156.717 148.773 149.921 151.822 144.611C155.349 138.47 158.916 132.533 162.536 126.458C162.81 125.999 162.452 125.603 162.013 125.464C161.036 125.155 160.036 124.943 159.052 124.657C156.74 123.975 154.435 123.269 152.137 122.54Z" fill="#FEFEFE"/>
<path d="M112.301 148.635C115.143 148.437 116.338 149.385 118.764 150.712C120.674 151.744 122.572 152.797 124.458 153.872C125.978 154.727 127.622 155.492 129.167 156.328C131.35 157.508 133.517 158.727 135.718 159.869C136.283 159.401 144.052 155.583 144.741 155.396C144.976 155.685 144.896 156.652 144.932 157.086C145.165 159.898 146.28 162.56 147.533 165.053C147.783 165.55 148.57 167.024 148.533 167.562C148.245 168.272 145.008 169.534 144.112 169.932C142.004 171.093 137.483 173.956 135.041 173.429C133.442 173.084 130.637 171.362 129.079 170.516L121.144 166.246L114.326 162.56C112.417 161.532 110.339 160.534 108.672 159.134C107.846 158.44 107.275 157.166 107.049 156.112C106.674 154.397 107.007 152.601 107.972 151.14C109.033 149.533 110.533 148.987 112.301 148.635Z" fill="white"/>
<path d="M174.374 163.042C176.261 164.163 179.42 166.346 181.132 167.715C181.82 168.264 184.392 171.024 185.124 171.77C187.731 174.395 190.324 177.034 192.902 179.688C194.404 181.237 195.914 182.777 197.433 184.309C198.597 185.465 199.896 186.61 200.912 187.887C203.382 190.993 202.311 196.25 198.231 197.286C196.311 197.773 194.106 197.325 192.599 196.011C190.862 194.496 189.241 192.839 187.57 191.248L177.396 181.634C175.505 179.839 173.629 178.027 171.743 176.227C170.504 175.043 169.122 174.151 167.682 173.233C167.808 172.104 166.708 169.771 167.2 167.916C167.708 165.665 169.448 163.915 171.718 163.481C172.306 163.368 173.972 163.356 174.374 163.042Z" fill="white"/>
<path d="M182.787 95.7414C189.173 95.3185 194.69 100.193 195.108 106.629C195.527 113.064 190.689 118.623 184.303 119.044C177.919 119.465 172.404 114.59 171.986 108.156C171.567 101.722 176.403 96.1641 182.787 95.7414Z" fill="white"/>
</g>
<defs>
<filter id="filter0_d_10566_682" x="101.359" y="88.9998" width="115.691" height="118.595" filterUnits="userSpaceOnUse" color-interpolation-filters="sRGB">
<feFlood flood-opacity="0" result="BackgroundImageFix"/>
<feColorMatrix in="SourceAlpha" type="matrix" values="0 0 0 0 0 0 0 0 0 0 0 0 0 0 0 0 0 0 127 0" result="hardAlpha"/>
<feOffset dy="4"/>
<feGaussianBlur stdDeviation="1"/>
<feComposite in2="hardAlpha" operator="out"/>
<feColorMatrix type="matrix" values="0 0 0 0 0 0 0 0 0 0 0 0 0 0 0 0 0 0 0.25 0"/>
<feBlend mode="normal" in2="BackgroundImageFix" result="effect1_dropShadow_10566_682"/>
<feBlend mode="normal" in="SourceGraphic" in2="effect1_dropShadow_10566_682" result="shape"/>
</filter>
</defs>
</svg>
